<?xml version="1.0" encoding="UTF-8"?>
<svg xmlns="http://www.w3.org/2000/svg" xmlns:xlink="http://www.w3.org/1999/xlink" width="0" height="0">
<defs>
<symbol viewBox="0 0 10 6" fill="none" id="arrow">
<path d="M0.999756 1.00003L4.99978 5L8.99978 1" stroke="black" stroke-width="1.5" stroke-miterlimit="16" stroke-linecap="round" stroke-linejoin="round"></path>
</symbol>
<symbol viewBox="0 0 16 18" fill="none" id="attachment">
<path d="M9.75 6.5V11.25C9.75 12.2165 8.9665 13 8 13V13C7.0335 13 6.25 12.2165 6.25 11.25V5C6.25 3.067 7.817 1.5 9.75 1.5V1.5C11.683 1.5 13.25 3.067 13.25 5V11.25C13.25 14.1495 10.8995 16.5 8 16.5V16.5C5.10051 16.5 2.75 14.1495 2.75 11.25V6.5" stroke="#1E1E1E" stroke-width="1.5" stroke-linecap="round"></path>
</symbol>
<symbol viewBox="0 0 20 20" fill="none" id="bell">
<path d="M12.5 15.8333C12.5 17.2141 11.3644 18.3333 9.97992 18.3333C8.59542 18.3333 7.5 17.2141 7.5 15.8333" stroke="#1E1E1E" stroke-width="1.5" stroke-linejoin="round"></path>
<path d="M4.16667 10V11.6667L2.5 13.75V15C2.5 15.4602 2.8731 15.8333 3.33333 15.8333H16.6667C17.1269 15.8333 17.5 15.4602 17.5 15V13.75L15.8333 11.6667V10C15.8333 6.77834 13.2217 4.16667 10 4.16667C6.77834 4.16667 4.16667 6.77834 4.16667 10Z" stroke="#1E1E1E" stroke-width="1.5" stroke-linecap="round" stroke-linejoin="round"></path>
<path d="M8.6989 2.76352L9.16665 4.16667H10.8333L11.3011 2.76352C11.4809 2.22392 11.0792 1.66667 10.5105 1.66667H9.48949C8.92074 1.66667 8.51907 2.22392 8.6989 2.76352Z" stroke="#1E1E1E" stroke-width="1.5" stroke-linecap="round" stroke-linejoin="round"></path>
</symbol>
<symbol viewBox="0 0 17 17" fill="none" id="chevrons-up-down">
<path d="M4.93668 10.5L8.27001 13.8333L11.6033 10.5" stroke="#1E1E1E" stroke-width="1.33333" stroke-linecap="round" stroke-linejoin="round"></path>
<path d="M4.93668 6.5L8.27001 3.16666L11.6033 6.5" stroke="#1E1E1E" stroke-width="1.33333" stroke-linecap="round" stroke-linejoin="round"></path>
</symbol>
<symbol viewBox="0 0 16 16" fill="none" id="home">
<g clip-path="url(#clip0_5882_2032)">
<path d="M2 6L8 1.33333L14 6V13.3333C14 13.687 13.8595 14.0261 13.6095 14.2761C13.3594 14.5262 13.0203 14.6667 12.6667 14.6667H3.33333C2.97971 14.6667 2.64057 14.5262 2.39052 14.2761C2.14048 14.0261 2 13.687 2 13.3333V6Z" stroke="#6D6D6D" stroke-width="1.33333" stroke-linecap="round" stroke-linejoin="round"></path>
<path d="M6 14.6667V8H10V14.6667" stroke="#6D6D6D" stroke-width="1.33333" stroke-linecap="round" stroke-linejoin="round"></path>
</g>
<defs>
<clipPath id="clip0_5882_2032">
<rect width="16" height="16" fill="white"></rect>
</clipPath>
</defs>
</symbol>
<symbol viewBox="0 0 20 20" fill="none" id="info">
   <path       d="M10.0001 18.3333C14.6025 18.3333 18.3334 14.6024 18.3334 10C18.3334 5.39763 14.6025 1.66667 10.0001 1.66667C5.39771 1.66667 1.66675 5.39763 1.66675 10C1.66675 14.6024 5.39771 18.3333 10.0001 18.3333Z"
      stroke="#1E1E1E" stroke-width="1.5" stroke-linecap="square" stroke-linejoin="round" ></path>
   <path       d="M7.91675 8.33333C7.91675 7.18274 8.8495 6.25 10.0001 6.25C11.1507 6.25 12.0834 7.18274 12.0834 8.33333C12.0834 9.48392 11.1507 10.4167 10.0001 10.4167V12.0833M10.0001 13.3333V14.5833"
      stroke="#1E1E1E" stroke-width="1.5" ></path>
</symbol>
<symbol viewBox="0 0 23 26" fill="none" id="logo">
<path fill-rule="evenodd" clip-rule="evenodd" d="M10.5332 0.389156L7.78216 10.0135L12.9837 8.52805L10.7545 20.5938L17.8137 4.44303L13.7268 5.55713L15.0741 0.708784C18.3062 1.3435 20.9565 2.69203 22.342 3.50449C22.9613 3.86767 23.1636 4.63775 22.856 5.28648L13.9003 24.1753C13.8839 24.2099 13.8667 24.2432 13.8459 24.2754C13.6883 24.5196 12.9056 25.6108 11.4977 25.6108C10.0899 25.6108 9.30714 24.5196 9.14958 24.2754C9.12879 24.2432 9.11157 24.2099 9.09515 24.1753L0.14184 5.29156C-0.166808 4.64058 0.0380384 3.86792 0.661142 3.50628C2.40333 2.49514 6.13347 0.650709 10.5332 0.389156Z" fill="url(#paint0_linear_5882_1974)"></path>
<defs>
<linearGradient id="paint0_linear_5882_1974" x1="0" y1="13" x2="22.9978" y2="13" gradientUnits="userSpaceOnUse">
<stop stop-color="#1E1E1E"></stop>
<stop offset="1" stop-color="#2D2D2D" stop-opacity="0.87"></stop>
</linearGradient>
</defs>
</symbol>
<symbol viewBox="0 0 20 20" fill="none" id="micro">
<path d="M14.1666 9.16669C14.1666 11.4679 12.3011 13.3334 9.99992 13.3334C7.69874 13.3334 5.83325 11.4679 5.83325 9.16669V5.83335C5.83325 3.53217 7.69874 1.66669 9.99992 1.66669" stroke="#1E1E1E" stroke-width="1.5" stroke-linecap="round" stroke-linejoin="round"></path>
<path d="M16.6666 9.16669C16.6666 12.8486 13.6818 15.8334 9.99992 15.8334M9.99992 15.8334C6.31802 15.8334 3.33325 12.8486 3.33325 9.16669M9.99992 15.8334V18.3334" stroke="#1E1E1E" stroke-width="1.5" stroke-linecap="round" stroke-linejoin="round"></path>
<path d="M11.944 3.87179C12.9496 3.74664 13.7467 2.94955 13.8718 1.94391C13.8908 1.79168 14.0133 1.66669 14.1667 1.66669C14.3202 1.66669 14.4427 1.79168 14.4617 1.94391C14.5868 2.94955 15.3839 3.74664 16.3895 3.87179C16.5417 3.89073 16.6667 4.01328 16.6667 4.16669C16.6667 4.3201 16.5417 4.44265 16.3895 4.46159C15.3839 4.58674 14.5868 5.38382 14.4617 6.38946C14.4427 6.5417 14.3202 6.66669 14.1667 6.66669C14.0133 6.66669 13.8908 6.5417 13.8718 6.38946C13.7467 5.38382 12.9496 4.58674 11.944 4.46159C11.7917 4.44265 11.6667 4.3201 11.6667 4.16669C11.6667 4.01328 11.7917 3.89073 11.944 3.87179Z" stroke="#1E1E1E" stroke-width="1.5"></path>
</symbol>
<symbol viewBox="0 0 16 16" fill="none" id="projects">
<path d="M11.6667 11.3333H4.33333M11.6667 8.66667H4.33333M2 6H14M5.2 2H10.8C11.9201 2 12.4802 2 12.908 2.21799C13.2843 2.40973 13.5903 2.71569 13.782 3.09202C14 3.51984 14 4.07989 14 5.2V10.8C14 11.9201 14 12.4802 13.782 12.908C13.5903 13.2843 13.2843 13.5903 12.908 13.782C12.4802 14 11.9201 14 10.8 14H5.2C4.07989 14 3.51984 14 3.09202 13.782C2.71569 13.5903 2.40973 13.2843 2.21799 12.908C2 12.4802 2 11.9201 2 10.8V5.2C2 4.07989 2 3.51984 2.21799 3.09202C2.40973 2.71569 2.71569 2.40973 3.09202 2.21799C3.51984 2 4.07989 2 5.2 2Z" stroke="#6D6D6D" stroke-width="1.25" stroke-linecap="round" stroke-linejoin="round"></path>
</symbol>
<symbol viewBox="0 0 12 12" fill="none" id="prompt-select">
<path d="M2.93469 10.4778L0.634965 6.49445C0.54655 6.3413 0.5 6.1676 0.5 5.99075C0.5 5.8139 0.54655 5.6402 0.634965 5.48705L2.93469 1.50375C3.02312 1.35058 3.15031 1.22339 3.30349 1.13496C3.45666 1.04653 3.63041 0.99999 3.80727 1H8.4067C8.58355 1.00001 8.7573 1.04656 8.91045 1.13498C9.0636 1.22341 9.1908 1.35059 9.2792 1.50375L11.5789 5.48705C11.6673 5.6402 11.714 5.81395 11.714 5.9908C11.714 6.16765 11.6673 6.3414 11.5789 6.49455L9.2792 10.4778C9.1908 10.631 9.0636 10.7582 8.91045 10.8465C8.7573 10.9349 8.58355 10.9815 8.4067 10.9815H3.80727C3.6304 10.9815 3.45666 10.935 3.30348 10.8465C3.15031 10.7581 3.02311 10.6311 2.93469 10.4778Z" fill="#18EBBD"></path>
<path opacity="0.07" d="M10.9455 7.9602L7.56347 4.57801L6.10697 4.18823L4.79869 4.67446L4.29346 5.9908L4.6997 7.4564L8.28622 11.0429L9.04727 11.0091L10.9455 7.9602Z" fill="#1E1E1E"></path>
<path d="M6.10703 3.95862C4.98477 3.95862 4.07495 4.86843 4.07495 5.9908C4.07495 7.11305 4.98477 8.02285 6.10703 8.02285C7.22928 8.02285 8.13903 7.11305 8.13903 5.9908C8.13903 4.86843 7.22923 3.95862 6.10703 3.95862ZM6.10703 7.5326C5.25548 7.5326 4.56512 6.84225 4.56512 5.9907C4.56512 5.13915 5.25548 4.44887 6.10703 4.44887C6.95858 4.44887 7.64893 5.13925 7.64893 5.9908C7.64893 6.84235 6.95858 7.5326 6.10703 7.5326Z" fill="white"></path>
<path d="M5.14233 5.91232V6.54397C5.23578 6.70442 5.36763 6.83917 5.52603 6.93602V5.91232H5.14233ZM5.90318 5.37982V7.08042C5.96843 7.09242 6.03523 7.09967 6.10383 7.09967C6.16638 7.09967 6.22733 7.09312 6.28718 7.08312V5.37982H5.90318ZM6.69963 6.17482V6.92492C6.86058 6.82257 6.99273 6.68082 7.08353 6.51317V6.17487L6.69963 6.17482ZM7.56913 7.24247L7.35863 7.45317C7.34078 7.47107 7.33078 7.49527 7.33078 7.52052C7.33078 7.54577 7.34078 7.56997 7.35863 7.58782L8.15718 8.38612C8.17503 8.40397 8.19928 8.41397 8.22453 8.41397C8.24973 8.41397 8.27398 8.40397 8.29183 8.38612L8.50238 8.17567C8.52008 8.15777 8.53003 8.13362 8.53003 8.10842C8.53003 8.08322 8.52008 8.05902 8.50238 8.04112L7.70373 7.24247C7.68583 7.22472 7.66163 7.21477 7.63643 7.21477C7.61123 7.21477 7.58703 7.22472 7.56913 7.24247Z" fill="white"></path>
</symbol>
<symbol viewBox="0 0 16 16" fill="none" id="send">
<path d="M14.6666 1.33331L9.99992 14.6666L7.33325 8.66665L1.33325 5.99998L14.6666 1.33331Z" stroke="#1E1E1E" stroke-width="1.33333" stroke-linecap="round" stroke-linejoin="round"></path>
<path d="M14.6666 1.33331L7.33325 8.66665" stroke="#1E1E1E" stroke-width="1.33333" stroke-linecap="round" stroke-linejoin="round"></path>
</symbol>
<symbol viewBox="0 0 16 16" fill="none" id="settings">
<g clip-path="url(#clip0_5882_1617)">
<path d="M8.14667 1.33337H7.85333C7.49971 1.33337 7.16057 1.47385 6.91053 1.7239C6.66048 1.97395 6.52 2.31309 6.52 2.66671V2.78671C6.51976 3.02052 6.45804 3.25017 6.34103 3.4526C6.22401 3.65503 6.05583 3.82313 5.85333 3.94004L5.56667 4.10671C5.36398 4.22373 5.13405 4.28534 4.9 4.28534C4.66595 4.28534 4.43603 4.22373 4.23333 4.10671L4.13333 4.05337C3.82738 3.87688 3.46389 3.829 3.12267 3.92025C2.78145 4.01149 2.49037 4.2344 2.31333 4.54004L2.16667 4.79337C1.99018 5.09933 1.9423 5.46282 2.03354 5.80404C2.12478 6.14526 2.34769 6.43634 2.65333 6.61337L2.75333 6.68004C2.95485 6.79638 3.12241 6.96343 3.23937 7.16459C3.35632 7.36576 3.4186 7.59402 3.42 7.82671V8.16671C3.42093 8.40165 3.35977 8.63268 3.2427 8.83638C3.12563 9.04008 2.95681 9.20924 2.75333 9.32671L2.65333 9.38671C2.34769 9.56374 2.12478 9.85482 2.03354 10.196C1.9423 10.5373 1.99018 10.9008 2.16667 11.2067L2.31333 11.46C2.49037 11.7657 2.78145 11.9886 3.12267 12.0798C3.46389 12.1711 3.82738 12.1232 4.13333 11.9467L4.23333 11.8934C4.43603 11.7763 4.66595 11.7147 4.9 11.7147C5.13405 11.7147 5.36398 11.7763 5.56667 11.8934L5.85333 12.06C6.05583 12.1769 6.22401 12.3451 6.34103 12.5475C6.45804 12.7499 6.51976 12.9796 6.52 13.2134V13.3334C6.52 13.687 6.66048 14.0261 6.91053 14.2762C7.16057 14.5262 7.49971 14.6667 7.85333 14.6667H8.14667C8.50029 14.6667 8.83943 14.5262 9.08948 14.2762C9.33953 14.0261 9.48 13.687 9.48 13.3334V13.2134C9.48024 12.9796 9.54196 12.7499 9.65898 12.5475C9.77599 12.3451 9.94418 12.1769 10.1467 12.06L10.4333 11.8934C10.636 11.7763 10.866 11.7147 11.1 11.7147C11.3341 11.7147 11.564 11.7763 11.7667 11.8934L11.8667 11.9467C12.1726 12.1232 12.5361 12.1711 12.8773 12.0798C13.2186 11.9886 13.5096 11.7657 13.6867 11.46L13.8333 11.2C14.0098 10.8941 14.0577 10.5306 13.9665 10.1894C13.8752 9.84815 13.6523 9.55707 13.3467 9.38004L13.2467 9.32671C13.0432 9.20924 12.8744 9.04008 12.7573 8.83638C12.6402 8.63268 12.5791 8.40165 12.58 8.16671V7.83337C12.5791 7.59843 12.6402 7.36741 12.7573 7.1637C12.8744 6.96 13.0432 6.79085 13.2467 6.67337L13.3467 6.61337C13.6523 6.43634 13.8752 6.14526 13.9665 5.80404C14.0577 5.46282 14.0098 5.09933 13.8333 4.79337L13.6867 4.54004C13.5096 4.2344 13.2186 4.01149 12.8773 3.92025C12.5361 3.829 12.1726 3.87688 11.8667 4.05337L11.7667 4.10671C11.564 4.22373 11.3341 4.28534 11.1 4.28534C10.866 4.28534 10.636 4.22373 10.4333 4.10671L10.1467 3.94004C9.94418 3.82313 9.77599 3.65503 9.65898 3.4526C9.54196 3.25017 9.48024 3.02052 9.48 2.78671V2.66671C9.48 2.31309 9.33953 1.97395 9.08948 1.7239C8.83943 1.47385 8.50029 1.33337 8.14667 1.33337Z" stroke="#6D6D6D" stroke-width="1.33333" stroke-linecap="round" stroke-linejoin="round"></path>
<path d="M8 10C9.10457 10 10 9.10457 10 8C10 6.89543 9.10457 6 8 6C6.89543 6 6 6.89543 6 8C6 9.10457 6.89543 10 8 10Z" stroke="#6D6D6D" stroke-width="1.33333" stroke-linecap="round" stroke-linejoin="round"></path>
</g>
<defs>
<clipPath id="clip0_5882_1617">
<rect width="16" height="16" fill="white"></rect>
</clipPath>
</defs>
</symbol>
<symbol viewBox="0 0 20 20" fill="none" id="stars">
<g clip-path="url(#clip0_1_236)">
<mask id="mask0_1_236" style="mask-type:luminance" maskUnits="userSpaceOnUse" x="0" y="0" width="20" height="20">
<path d="M20 0H0V20H20V0Z" fill="white"></path>
</mask>
<g mask="url(#mask0_1_236)">
<path d="M3.125 0.625C3.125 0.279822 3.40482 0 3.75 0C4.09518 0 4.375 0.279822 4.375 0.625C4.375 2.00571 5.49429 3.125 6.875 3.125C7.22018 3.125 7.5 3.40482 7.5 3.75C7.5 4.09518 7.22018 4.375 6.875 4.375C5.49429 4.375 4.375 5.49429 4.375 6.875C4.375 7.22018 4.09518 7.5 3.75 7.5C3.40482 7.5 3.125 7.22018 3.125 6.875C3.125 5.49429 2.00571 4.375 0.625 4.375C0.279822 4.375 0 4.09518 0 3.75C0 3.40482 0.279822 3.125 0.625 3.125C2.00571 3.125 3.125 2.00571 3.125 0.625Z" fill="#18EBBD"></path>
<path d="M18.125 5.625C18.125 5.97018 17.8452 6.25 17.5 6.25C17.1548 6.25 16.875 5.97018 16.875 5.625C16.875 4.93465 16.3154 4.375 15.625 4.375C15.2798 4.375 15 4.09518 15 3.75C15 3.40482 15.2798 3.125 15.625 3.125C16.3154 3.125 16.875 2.56535 16.875 1.875C16.875 1.52982 17.1548 1.25 17.5 1.25C17.8452 1.25 18.125 1.52982 18.125 1.875C18.125 2.56535 18.6846 3.125 19.375 3.125C19.7202 3.125 20 3.40482 20 3.75C20 4.09518 19.7202 4.375 19.375 4.375C18.6846 4.375 18.125 4.93465 18.125 5.625Z" fill="#18EBBD"></path>
<path d="M10.5088 6.16174L10.5628 5.6219C10.5981 5.26885 10.8952 5 11.25 5C11.6048 5 11.9019 5.26885 11.9372 5.6219L11.9912 6.16174C12.2872 9.12168 14.6284 11.4628 17.5882 11.7588L18.1281 11.8128C18.4812 11.8481 18.75 12.1452 18.75 12.5C18.75 12.8548 18.4811 13.1519 18.1281 13.1872L17.5882 13.2411C14.6284 13.5371 12.2872 15.8784 11.9912 18.8382L11.9372 19.3781C11.9019 19.7311 11.6048 20 11.25 20C10.8952 20 10.5981 19.7311 10.5628 19.3781L10.5088 18.8382C10.2128 15.8784 7.87168 13.5371 4.91174 13.2411L4.37191 13.1872C4.01886 13.1519 3.75 12.8548 3.75 12.5C3.75 12.1452 4.01885 11.8481 4.37188 11.8128L4.91174 11.7588C7.87168 11.4628 10.2128 9.12168 10.5088 6.16174Z" fill="#18EBBD"></path>
</g>
</g>
<defs>
<clipPath id="clip0_1_236">
<rect width="20" height="20" fill="white"></rect>
</clipPath>
</defs>
</symbol>
<symbol viewBox="0 0 16 16" fill="none" id="threads">
<g clip-path="url(#clip0_5882_1606)">
<path d="M14 10C14 10.3536 13.8595 10.6928 13.6095 10.9428C13.3594 11.1929 13.0203 11.3333 12.6667 11.3333H4.66667L2 14V3.33333C2 2.97971 2.14048 2.64057 2.39052 2.39052C2.64057 2.14048 2.97971 2 3.33333 2H12.6667C13.0203 2 13.3594 2.14048 13.6095 2.39052C13.8595 2.64057 14 2.97971 14 3.33333V10Z" stroke="#6D6D6D" stroke-width="1.33333" stroke-linecap="round" stroke-linejoin="round"></path>
</g>
<defs>
<clipPath id="clip0_5882_1606">
<rect width="16" height="16" fill="white"></rect>
</clipPath>
</defs>
</symbol>
<symbol viewBox="0 0 16 16" fill="none" id="user">
<path d="M11.8706 9.89147C11.9482 9.9376 12.0439 9.99167 12.1524 10.0529C12.6276 10.3209 13.3459 10.7262 13.8381 11.2079C14.1459 11.5091 14.4383 11.9061 14.4915 12.3925C14.548 12.9097 14.3223 13.3951 13.8697 13.8264C13.0887 14.5704 12.1515 15.1667 10.9393 15.1667H5.06045C3.84825 15.1667 2.91105 14.5704 2.13009 13.8264C1.67741 13.3951 1.45177 12.9097 1.50831 12.3925C1.56147 11.9061 1.85391 11.5091 2.16169 11.2079C2.6538 10.7262 3.37214 10.3209 3.84735 10.0529C3.95579 9.99167 4.05158 9.9376 4.12912 9.89147C6.49848 8.4806 9.50127 8.4806 11.8706 9.89147Z" fill="white"></path>
<path d="M4.49976 4.33333C4.49976 2.40033 6.06676 0.833334 7.99975 0.833334C9.93275 0.833334 11.4997 2.40033 11.4997 4.33333C11.4997 6.26633 9.93275 7.83333 7.99975 7.83333C6.06676 7.83333 4.49976 6.26633 4.49976 4.33333Z" fill="white"></path>
</symbol>
<symbol viewBox="0 0 16 16" fill="none" id="web">
<g clip-path="url(#clip0_1_271)">
<path d="M7.99992 14.6666C11.6818 14.6666 14.6666 11.6819 14.6666 7.99998C14.6666 4.31808 11.6818 1.33331 7.99992 1.33331C4.31802 1.33331 1.33325 4.31808 1.33325 7.99998C1.33325 11.6819 4.31802 14.6666 7.99992 14.6666Z" stroke="#1E1E1E" stroke-width="1.5" stroke-linecap="square" stroke-linejoin="round"></path>
<path d="M5.33325 7.99998C5.33325 12 7.99992 14.6666 7.99992 14.6666C7.99992 14.6666 10.6666 12 10.6666 7.99998C10.6666 3.99998 7.99992 1.33331 7.99992 1.33331C7.99992 1.33331 5.33325 3.99998 5.33325 7.99998Z" stroke="#1E1E1E" stroke-width="1.5" stroke-linecap="square" stroke-linejoin="round"></path>
<path d="M14 10H2" stroke="#1E1E1E" stroke-width="1.5" stroke-linecap="square" stroke-linejoin="round"></path>
<path d="M14 6H2" stroke="#1E1E1E" stroke-width="1.5" stroke-linecap="square" stroke-linejoin="round"></path>
</g>
<defs>
<clipPath id="clip0_1_271">
<rect width="16" height="16" fill="white"></rect>
</clipPath>
</defs>
</symbol>
</defs>
</svg>