<?xml version="1.0" encoding="UTF-8"?>
<svg xmlns="http://www.w3.org/2000/svg" xmlns:xlink="http://www.w3.org/1999/xlink" width="0" height="0">
<defs>
<symbol viewBox="0 0 10 6" fill="none" id="arrow">
<path d="M0.999756 1.00003L4.99978 5L8.99978 1" stroke="black" stroke-width="1.5" stroke-miterlimit="16" stroke-linecap="round" stroke-linejoin="round"></path>
</symbol>
<symbol viewBox="0 0 20 20" fill="none" id="bell">
<path d="M12.5 15.8333C12.5 17.2141 11.3644 18.3333 9.97992 18.3333C8.59542 18.3333 7.5 17.2141 7.5 15.8333" stroke="#1E1E1E" stroke-width="1.5" stroke-linejoin="round"></path>
<path d="M4.16667 10V11.6667L2.5 13.75V15C2.5 15.4602 2.8731 15.8333 3.33333 15.8333H16.6667C17.1269 15.8333 17.5 15.4602 17.5 15V13.75L15.8333 11.6667V10C15.8333 6.77834 13.2217 4.16667 10 4.16667C6.77834 4.16667 4.16667 6.77834 4.16667 10Z" stroke="#1E1E1E" stroke-width="1.5" stroke-linecap="round" stroke-linejoin="round"></path>
<path d="M8.6989 2.76352L9.16665 4.16667H10.8333L11.3011 2.76352C11.4809 2.22392 11.0792 1.66667 10.5105 1.66667H9.48949C8.92074 1.66667 8.51907 2.22392 8.6989 2.76352Z" stroke="#1E1E1E" stroke-width="1.5" stroke-linecap="round" stroke-linejoin="round"></path>
</symbol>
<symbol viewBox="0 0 16 16" fill="none" id="home">
<g clip-path="url(#clip0_1_117)">
<path d="M2 6L8 1.33333L14 6V13.3333C14 13.687 13.8595 14.0261 13.6095 14.2761C13.3594 14.5262 13.0203 14.6667 12.6667 14.6667H3.33333C2.97971 14.6667 2.64057 14.5262 2.39052 14.2761C2.14048 14.0261 2 13.687 2 13.3333V6Z" stroke="#6D6D6D" stroke-width="1.33333" stroke-linecap="round" stroke-linejoin="round"></path>
<path d="M6 14.6667V8H10V14.6667" stroke="#6D6D6D" stroke-width="1.33333" stroke-linecap="round" stroke-linejoin="round"></path>
</g>
<defs>
<clipPath id="clip0_1_117">
<rect width="16" height="16" fill="white"></rect>
</clipPath>
</defs>
</symbol>
<symbol viewBox="0 0 20 20" fill="none" id="info">
   <path       d="M10.0001 18.3333C14.6025 18.3333 18.3334 14.6024 18.3334 10C18.3334 5.39763 14.6025 1.66667 10.0001 1.66667C5.39771 1.66667 1.66675 5.39763 1.66675 10C1.66675 14.6024 5.39771 18.3333 10.0001 18.3333Z"
      stroke="#1E1E1E" stroke-width="1.5" stroke-linecap="square" stroke-linejoin="round" ></path>
   <path       d="M7.91675 8.33333C7.91675 7.18274 8.8495 6.25 10.0001 6.25C11.1507 6.25 12.0834 7.18274 12.0834 8.33333C12.0834 9.48392 11.1507 10.4167 10.0001 10.4167V12.0833M10.0001 13.3333V14.5833"
      stroke="#1E1E1E" stroke-width="1.5" ></path>
</symbol>
<symbol viewBox="0 0 14 14" fill="none" id="projects">
<path d="M10.6667 10.3333H3.33333M10.6667 7.66667H3.33333M1 5H13M4.2 1H9.8C10.9201 1 11.4802 1 11.908 1.21799C12.2843 1.40973 12.5903 1.71569 12.782 2.09202C13 2.51984 13 3.07989 13 4.2V9.8C13 10.9201 13 11.4802 12.782 11.908C12.5903 12.2843 12.2843 12.5903 11.908 12.782C11.4802 13 10.9201 13 9.8 13H4.2C3.07989 13 2.51984 13 2.09202 12.782C1.71569 12.5903 1.40973 12.2843 1.21799 11.908C1 11.4802 1 10.9201 1 9.8V4.2C1 3.07989 1 2.51984 1.21799 2.09202C1.40973 1.71569 1.71569 1.40973 2.09202 1.21799C2.51984 1 3.07989 1 4.2 1Z" stroke="#6D6D6D" stroke-width="1.25" stroke-linecap="round" stroke-linejoin="round"></path>
</symbol>
<symbol viewBox="0 0 16 16" fill="none" id="user">
<path d="M11.8706 9.89147C11.9482 9.9376 12.0439 9.99167 12.1524 10.0529C12.6276 10.3209 13.3459 10.7262 13.8381 11.2079C14.1459 11.5091 14.4383 11.9061 14.4915 12.3925C14.548 12.9097 14.3223 13.3951 13.8697 13.8264C13.0887 14.5704 12.1515 15.1667 10.9393 15.1667H5.06045C3.84825 15.1667 2.91105 14.5704 2.13009 13.8264C1.67741 13.3951 1.45177 12.9097 1.50831 12.3925C1.56147 11.9061 1.85391 11.5091 2.16169 11.2079C2.6538 10.7262 3.37214 10.3209 3.84735 10.0529C3.95579 9.99167 4.05158 9.9376 4.12912 9.89147C6.49848 8.4806 9.50127 8.4806 11.8706 9.89147Z" fill="white"></path>
<path d="M4.49976 4.33333C4.49976 2.40033 6.06676 0.833334 7.99975 0.833334C9.93275 0.833334 11.4997 2.40033 11.4997 4.33333C11.4997 6.26633 9.93275 7.83333 7.99975 7.83333C6.06676 7.83333 4.49976 6.26633 4.49976 4.33333Z" fill="white"></path>
</symbol>
</defs>
</svg>
