<?xml version="1.0" encoding="UTF-8"?>
<svg xmlns="http://www.w3.org/2000/svg" xmlns:xlink="http://www.w3.org/1999/xlink" width="0" height="0">
    <defs>
        <symbol viewBox="0 0 16 16" fill="none" id="home">
            <g clip-path="url(#clip0_1_117)">
                <path
                    d="M2 6L8 1.33333L14 6V13.3333C14 13.687 13.8595 14.0261 13.6095 14.2761C13.3594 14.5262 13.0203 14.6667 12.6667 14.6667H3.33333C2.97971 14.6667 2.64057 14.5262 2.39052 14.2761C2.14048 14.0261 2 13.687 2 13.3333V6Z"
                    stroke="#6D6D6D" stroke-width="1.33333" stroke-linecap="round" stroke-linejoin="round"></path>
                <path d="M6 14.6667V8H10V14.6667" stroke="#6D6D6D" stroke-width="1.33333" stroke-linecap="round"
                    stroke-linejoin="round"></path>
            </g>
            <defs>
                <clipPath id="clip0_1_117">
                    <rect width="16" height="16" fill="white"></rect>
                </clipPath>
            </defs>
        </symbol>
        <symbol viewBox="0 0 14 14" fill="none" id="projects">
            <path
                d="M10.6667 10.3333H3.33333M10.6667 7.66667H3.33333M1 5H13M4.2 1H9.8C10.9201 1 11.4802 1 11.908 1.21799C12.2843 1.40973 12.5903 1.71569 12.782 2.09202C13 2.51984 13 3.07989 13 4.2V9.8C13 10.9201 13 11.4802 12.782 11.908C12.5903 12.2843 12.2843 12.5903 11.908 12.782C11.4802 13 10.9201 13 9.8 13H4.2C3.07989 13 2.51984 13 2.09202 12.782C1.71569 12.5903 1.40973 12.2843 1.21799 11.908C1 11.4802 1 10.9201 1 9.8V4.2C1 3.07989 1 2.51984 1.21799 2.09202C1.40973 1.71569 1.71569 1.40973 2.09202 1.21799C2.51984 1 3.07989 1 4.2 1Z"
                stroke="#6D6D6D" stroke-width="1.25" stroke-linecap="round" stroke-linejoin="round"></path>
        </symbol>
    </defs>
</svg>