<?xml version="1.0" encoding="UTF-8"?>
<svg xmlns="http://www.w3.org/2000/svg" xmlns:xlink="http://www.w3.org/1999/xlink" width="0" height="0">
<defs>
<symbol viewBox="0 0 16 16" fill="none" id="home">
<g clip-path="url(#clip0_1_117)">
<path d="M2 6L8 1.33333L14 6V13.3333C14 13.687 13.8595 14.0261 13.6095 14.2761C13.3594 14.5262 13.0203 14.6667 12.6667 14.6667H3.33333C2.97971 14.6667 2.64057 14.5262 2.39052 14.2761C2.14048 14.0261 2 13.687 2 13.3333V6Z" stroke="#6D6D6D" stroke-width="1.33333" stroke-linecap="round" stroke-linejoin="round"></path>
<path d="M6 14.6667V8H10V14.6667" stroke="#6D6D6D" stroke-width="1.33333" stroke-linecap="round" stroke-linejoin="round"></path>
</g>
<defs>
<clipPath id="clip0_1_117">
<rect width="16" height="16" fill="white"></rect>
</clipPath>
</defs>
</symbol>
<symbol viewBox="0 0 23 26" fill="none" id="logo">
<path fill-rule="evenodd" clip-rule="evenodd" d="M10.5332 0.389156L7.78216 10.0135L12.9837 8.52805L10.7545 20.5938L17.8137 4.44303L13.7268 5.55713L15.0741 0.708784C18.3062 1.3435 20.9565 2.69203 22.342 3.50449C22.9613 3.86767 23.1636 4.63775 22.856 5.28648L13.9003 24.1753C13.8839 24.2099 13.8667 24.2432 13.8459 24.2754C13.6883 24.5196 12.9056 25.6108 11.4977 25.6108C10.0899 25.6108 9.30714 24.5196 9.14958 24.2754C9.12879 24.2432 9.11157 24.2099 9.09515 24.1753L0.14184 5.29156C-0.166808 4.64058 0.0380384 3.86792 0.661142 3.50628C2.40333 2.49514 6.13347 0.650709 10.5332 0.389156Z" fill="url(#paint0_linear_5882_1974)"></path>
<defs>
<linearGradient id="paint0_linear_5882_1974" x1="0" y1="13" x2="22.9978" y2="13" gradientUnits="userSpaceOnUse">
<stop stop-color="#1E1E1E"></stop>
<stop offset="1" stop-color="#2D2D2D" stop-opacity="0.87"></stop>
</linearGradient>
</defs>
</symbol>
<symbol viewBox="0 0 14 14" fill="none" id="projects">
<path d="M10.6667 10.3333H3.33333M10.6667 7.66667H3.33333M1 5H13M4.2 1H9.8C10.9201 1 11.4802 1 11.908 1.21799C12.2843 1.40973 12.5903 1.71569 12.782 2.09202C13 2.51984 13 3.07989 13 4.2V9.8C13 10.9201 13 11.4802 12.782 11.908C12.5903 12.2843 12.2843 12.5903 11.908 12.782C11.4802 13 10.9201 13 9.8 13H4.2C3.07989 13 2.51984 13 2.09202 12.782C1.71569 12.5903 1.40973 12.2843 1.21799 11.908C1 11.4802 1 10.9201 1 9.8V4.2C1 3.07989 1 2.51984 1.21799 2.09202C1.40973 1.71569 1.71569 1.40973 2.09202 1.21799C2.51984 1 3.07989 1 4.2 1Z" stroke="#6D6D6D" stroke-width="1.25" stroke-linecap="round" stroke-linejoin="round"></path>
</symbol>
</defs>
</svg>