<svg width="20" height="20" viewBox="0 0 20 20" fill="none" xmlns="http://www.w3.org/2000/svg">
<path d="M12.5 15.8333C12.5 17.2141 11.3644 18.3333 9.97992 18.3333C8.59542 18.3333 7.5 17.2141 7.5 15.8333" stroke="#1E1E1E" stroke-width="1.5" stroke-linejoin="round"/>
<path d="M4.16667 10V11.6667L2.5 13.75V15C2.5 15.4602 2.8731 15.8333 3.33333 15.8333H16.6667C17.1269 15.8333 17.5 15.4602 17.5 15V13.75L15.8333 11.6667V10C15.8333 6.77834 13.2217 4.16667 10 4.16667C6.77834 4.16667 4.16667 6.77834 4.16667 10Z" stroke="#1E1E1E" stroke-width="1.5" stroke-linecap="round" stroke-linejoin="round"/>
<path d="M8.6989 2.76352L9.16665 4.16667H10.8333L11.3011 2.76352C11.4809 2.22392 11.0792 1.66667 10.5105 1.66667H9.48949C8.92074 1.66667 8.51907 2.22392 8.6989 2.76352Z" stroke="#1E1E1E" stroke-width="1.5" stroke-linecap="round" stroke-linejoin="round"/>
</svg>
