<svg width="21" height="21" viewBox="0 0 21 21" fill="none" xmlns="http://www.w3.org/2000/svg">
<g clip-path="url(#clip0_12351_1839)">
<path d="M14.4696 16.3558H19.1009C19.4663 16.3558 19.7625 16.0652 19.7625 15.7067C19.7625 15.3483 19.4562 15.0574 19.125 14.9059C18.2257 14.4945 16.4545 13.1597 16.4545 9.86528C16.4545 5.97097 16.4545 0.778564 10.5 0.778564C4.54552 0.778564 4.54552 5.97097 4.54552 9.86528C4.54552 13.1597 2.77423 14.4945 1.87496 14.9059C1.5438 15.0574 1.23749 15.3483 1.23749 15.7067C1.23749 16.0652 1.5337 16.3558 1.89909 16.3558H6.53034M14.4696 16.3558C14.4696 17.6539 13.1464 20.2501 10.5 20.2501C7.85356 20.2501 6.53034 17.6539 6.53034 16.3558M14.4696 16.3558H6.53034" stroke="#1D1D1F" stroke-width="1.4"/>
<ellipse cx="15.375" cy="4.1543" rx="3.4125" ry="3.4043" fill="#FEBC2E"/>
</g>
<defs>
<clipPath id="clip0_12351_1839">
<rect width="21" height="21" fill="white"/>
</clipPath>
</defs>
</svg>
