<svg width="20" height="22" viewBox="0 0 20 22" fill="none" xmlns="http://www.w3.org/2000/svg">
<path d="M13.75 11.3811V19.4375C13.75 20.5766 12.857 21.5 11.7367 21.5H3.01562C1.89297 21.5 1 20.5766 1 19.4375V7.0625C1.0032 6.51648 1.22152 5.99373 1.60763 5.60763C1.99373 5.22152 2.51648 5.0032 3.0625 5H7.47437C7.62708 5.00023 7.77822 5.03086 7.91898 5.09009C8.05973 5.14932 8.18729 5.23597 8.29422 5.345L13.4106 10.5481C13.6283 10.7707 13.7501 11.0697 13.75 11.3811Z" stroke="#1E1E1E" stroke-linejoin="round"/>
<path d="M7.375 5V10.0625C7.37914 10.4093 7.51875 10.7408 7.764 10.986C8.00925 11.2313 8.34069 11.3709 8.6875 11.375H13.75" stroke="#1E1E1E" stroke-linecap="round" stroke-linejoin="round"/>
<path d="M6.25 5V2.5625C6.2532 2.01648 6.47152 1.49373 6.85763 1.10763C7.24373 0.721524 7.76648 0.503198 8.3125 0.5H12.7188C12.8723 0.500213 13.0243 0.530807 13.166 0.590018C13.3076 0.649229 13.4362 0.735887 13.5442 0.845L18.6606 6.04813C18.8781 6.26838 19 6.56546 19 6.875V14.9375C19 16.0766 18.107 17 16.9867 17H14.125" stroke="#1E1E1E" stroke-linejoin="round"/>
<path d="M12.625 0.5V5.5625C12.6291 5.90931 12.7687 6.24075 13.014 6.486C13.2592 6.73125 13.5907 6.87086 13.9375 6.875H19" stroke="#1E1E1E" stroke-linecap="round" stroke-linejoin="round"/>
</svg>
