<svg width="28" height="28" viewBox="0 0 28 28" fill="none" xmlns="http://www.w3.org/2000/svg">
<path d="M16.9516 14.5471L7.72097 23.7766C7.25684 24.2407 6.62734 24.5014 5.97097 24.5014C5.31459 24.5014 4.6851 24.2407 4.22097 23.7766C3.75684 23.3124 3.49609 22.6829 3.49609 22.0266C3.49609 21.3702 3.75684 20.7407 4.22097 20.2766L13.4516 11.0459" stroke="black" stroke-width="1.5" stroke-linecap="round" stroke-linejoin="round"/>
<path d="M18.3013 5.03252C16.54 3.93525 14.5647 3.22654 12.5075 2.95372C10.4504 2.68091 8.35865 2.85028 6.37217 3.45052C6.19532 3.5631 6.05208 3.72126 5.9575 3.90835C5.86292 4.09545 5.82051 4.30457 5.83471 4.51374C5.84892 4.7229 5.91922 4.92437 6.03823 5.09696C6.15724 5.26955 6.32055 5.40688 6.511 5.49452C9.16797 6.40198 11.658 7.73924 13.882 9.45302" stroke="black" stroke-width="1.5" stroke-linecap="round" stroke-linejoin="round"/>
<path d="M20.6499 4.3169C20.4318 4.10313 20.1386 3.9834 19.8332 3.9834C19.5279 3.9834 19.2347 4.10313 19.0166 4.3169L13.6499 9.68357C13.4361 9.90165 13.3164 10.1949 13.3164 10.5002C13.3164 10.8056 13.4361 11.0988 13.6499 11.3169L16.6832 14.3502C16.9013 14.564 17.1945 14.6837 17.4999 14.6837C17.8053 14.6837 18.0985 14.564 18.3166 14.3502L23.6832 8.98357C23.897 8.76548 24.0167 8.47228 24.0167 8.1669C24.0167 7.86152 23.897 7.56832 23.6832 7.35023L20.6499 4.3169Z" stroke="black" stroke-width="1.5" stroke-linecap="round" stroke-linejoin="round"/>
<path d="M22.9662 9.69922C24.0634 11.4606 24.7721 13.4359 25.0449 15.493C25.3177 17.5502 25.1484 19.6419 24.5482 21.6284C24.4355 21.8049 24.2774 21.9479 24.0905 22.0423C23.9035 22.1367 23.6946 22.179 23.4856 22.1648C23.2767 22.1506 23.0754 22.0804 22.9029 21.9616C22.7304 21.8428 22.5931 21.6797 22.5054 21.4896C21.598 18.8322 20.2608 16.3417 18.5469 14.1174" stroke="black" stroke-width="1.5" stroke-linecap="round" stroke-linejoin="round"/>
</svg>
