<svg width="24" height="19" viewBox="0 0 24 19" fill="none" xmlns="http://www.w3.org/2000/svg">
<path d="M8.4001 10.6C11.0511 10.6 13.2001 8.45097 13.2001 5.8C13.2001 3.14903 11.0511 1 8.4001 1C5.74913 1 3.6001 3.14903 3.6001 5.8C3.6001 8.45097 5.74913 10.6 8.4001 10.6Z" stroke="#1E1E1E" stroke-linecap="round" stroke-linejoin="round"/>
<path d="M16.8 17.8C16.8 13.8232 13.0392 10.6 8.4 10.6C3.7608 10.6 0 13.8232 0 17.8M15.6 10.6C16.4021 10.6 17.1913 10.3989 17.8957 10.0153C18.6 9.63164 19.197 9.07761 19.6321 8.40381C20.0672 7.73001 20.3265 6.95793 20.3864 6.1581C20.4462 5.35827 20.3047 4.5562 19.9747 3.82516C19.6447 3.09413 19.1368 2.45743 18.4973 1.97326C17.8579 1.48908 17.1073 1.17285 16.3142 1.05347C15.5211 0.934087 14.7107 1.01535 13.957 1.28984C13.2034 1.56433 12.5306 2.0233 12 2.6248" stroke="#1E1E1E" stroke-linecap="round" stroke-linejoin="round"/>
<path d="M24 17.7999C24 13.8231 20.2392 10.5999 15.6 10.5999C14.6316 10.5999 13.0764 10.2483 12 9.11786" stroke="#1E1E1E" stroke-linecap="round" stroke-linejoin="round"/>
</svg>
