<svg width="24" height="30" viewBox="0 0 24 30" fill="none" xmlns="http://www.w3.org/2000/svg">
<path d="M8.71698 1.07143H13.791L22.4466 9.69121V21.8496V21.8496C22.4466 24.3466 22.4466 25.5951 21.9586 26.5488C21.5294 27.3877 20.8445 28.0698 20.0021 28.4972C19.5065 28.7487 18.9318 28.87 18.1451 28.9286H5.85519C5.06852 28.87 4.49374 28.7487 3.99822 28.4972C3.15581 28.0698 2.47091 27.3877 2.04168 26.5488C1.55371 25.5951 1.55371 24.3466 1.55371 21.8496V8.20504C1.55371 5.70804 1.55371 4.45954 2.04168 3.50581C2.47091 2.66689 3.15581 1.98483 3.99822 1.55737C4.95591 1.07143 6.2096 1.07143 8.71698 1.07143Z" fill="white"/>
<path d="M13.791 1.07143H8.71698C6.2096 1.07143 4.95591 1.07143 3.99822 1.55737C3.15581 1.98483 2.47091 2.66689 2.04168 3.50581C1.55371 4.45954 1.55371 5.70804 1.55371 8.20504V21.8496C1.55371 24.3466 1.55371 25.5951 2.04168 26.5488C2.47091 27.3877 3.15581 28.0698 3.99822 28.4972C4.49374 28.7487 5.06852 28.87 5.85519 28.9286H18.1451C18.9318 28.87 19.5065 28.7487 20.0021 28.4972C20.8445 28.0698 21.5294 27.3877 21.9586 26.5488C22.4466 25.5951 22.4466 24.3466 22.4466 21.8496V9.69121M13.791 1.07143V3.16876C13.791 5.45183 13.791 6.59336 14.2353 7.46538C14.6261 8.23243 15.2497 8.85606 16.0168 9.24689C16.8888 9.69121 18.0303 9.69121 20.3134 9.69121H22.4466M13.791 1.07143L22.4466 9.69121" stroke="#434343" stroke-width="1.6" stroke-linecap="round"/>
</svg>
