<svg width="18" height="18" viewBox="0 0 18 18" fill="none" xmlns="http://www.w3.org/2000/svg">
<path d="M5.67969 0.71875H1.34375C0.998047 0.71875 0.71875 0.998047 0.71875 1.34375V5.71875C0.71875 5.89062 0.859375 6.03125 1.03125 6.03125H1.96875C2.14062 6.03125 2.28125 5.89062 2.28125 5.71875V2.28125H5.67969C5.85156 2.28125 5.99219 2.14062 5.99219 1.96875V1.03125C5.99219 0.859375 5.85156 0.71875 5.67969 0.71875ZM16.9688 11.9688H16.0312C15.8594 11.9688 15.7188 12.1094 15.7188 12.2812V15.7188H12.3203C12.1484 15.7188 12.0078 15.8594 12.0078 16.0312V16.9688C12.0078 17.1406 12.1484 17.2812 12.3203 17.2812H16.6562C17.002 17.2812 17.2812 17.002 17.2812 16.6562V12.2812C17.2812 12.1094 17.1406 11.9688 16.9688 11.9688ZM5.67969 15.7188H2.28125V12.2812C2.28125 12.1094 2.14062 11.9688 1.96875 11.9688H1.03125C0.859375 11.9688 0.71875 12.1094 0.71875 12.2812V16.6562C0.71875 17.002 0.998047 17.2812 1.34375 17.2812H5.67969C5.85156 17.2812 5.99219 17.1406 5.99219 16.9688V16.0312C5.99219 15.8594 5.85156 15.7188 5.67969 15.7188ZM16.6562 0.71875H12.3203C12.1484 0.71875 12.0078 0.859375 12.0078 1.03125V1.96875C12.0078 2.14062 12.1484 2.28125 12.3203 2.28125H15.7188V5.71875C15.7188 5.89062 15.8594 6.03125 16.0312 6.03125H16.9688C17.1406 6.03125 17.2812 5.89062 17.2812 5.71875V1.34375C17.2812 0.998047 17.002 0.71875 16.6562 0.71875Z" fill="black"/>
</svg>
