<svg width="23" height="26" viewBox="0 0 23 26" fill="none" xmlns="http://www.w3.org/2000/svg">
<path fill-rule="evenodd" clip-rule="evenodd" d="M10.5332 0.389156L7.78216 10.0135L12.9837 8.52805L10.7545 20.5938L17.8137 4.44303L13.7268 5.55713L15.0741 0.708784C18.3062 1.3435 20.9565 2.69203 22.342 3.50449C22.9613 3.86767 23.1636 4.63775 22.856 5.28648L13.9003 24.1753C13.8839 24.2099 13.8667 24.2432 13.8459 24.2754C13.6883 24.5196 12.9056 25.6108 11.4977 25.6108C10.0899 25.6108 9.30714 24.5196 9.14958 24.2754C9.12879 24.2432 9.11157 24.2099 9.09515 24.1753L0.14184 5.29156C-0.166808 4.64058 0.0380384 3.86792 0.661142 3.50628C2.40333 2.49514 6.13347 0.650709 10.5332 0.389156Z" fill="url(#paint0_linear_5882_1974)"/>
<defs>
<linearGradient id="paint0_linear_5882_1974" x1="0" y1="13" x2="22.9978" y2="13" gradientUnits="userSpaceOnUse">
<stop stop-color="#1E1E1E"/>
<stop offset="1" stop-color="#2D2D2D" stop-opacity="0.87"/>
</linearGradient>
</defs>
</svg>
