<svg width="40" height="44" viewBox="0 0 40 44" fill="none" xmlns="http://www.w3.org/2000/svg">
<path fill-rule="evenodd" clip-rule="evenodd" d="M18.3163 0L13.5251 16.7895L22.5841 14.198L18.7017 35.247L30.9961 7.07161L23.8783 9.01518L26.2248 0.557599C31.7912 1.65257 36.3669 3.96528 38.8013 5.3872C39.928 6.04527 40.2974 7.44576 39.7392 8.6251L24.1822 41.4918C24.1524 41.5548 24.1211 41.6154 24.0832 41.674C23.8034 42.1072 22.441 44 19.9961 44C17.5511 44 16.1887 42.1072 15.9089 41.674C15.8711 41.6154 15.8397 41.5548 15.8099 41.4918L0.257322 8.63435C-0.302845 7.4509 0.0690455 6.04711 1.20256 5.39176C4.26976 3.61844 10.72 0.452337 18.3163 0Z" fill="url(#paint0_linear_12349_1619)"/>
<defs>
<linearGradient id="paint0_linear_12349_1619" x1="5.18038" y1="21.6573" x2="34.8142" y2="21.6573" gradientUnits="userSpaceOnUse">
<stop stop-color="#1E1E1E"/>
<stop offset="1" stop-color="#2D2D2D" stop-opacity="0.87"/>
</linearGradient>
</defs>
</svg>
