<svg width="20" height="20" viewBox="0 0 20 20" fill="none" xmlns="http://www.w3.org/2000/svg">
<path d="M10.8332 11.6667L8.33321 9.16667M12.5085 2.91667V1.66667M15.7913 4.21722L16.6752 3.33334M15.7913 10.8333L16.6752 11.7172M9.17517 4.21722L8.29128 3.33334M17.0918 7.50001H18.3418M5.10935 17.3905L12.8071 9.69281C13.1371 9.3628 13.3021 9.19779 13.3639 9.00752C13.4183 8.84015 13.4183 8.65986 13.3639 8.49249C13.3021 8.30222 13.1371 8.13721 12.8071 7.8072L12.1927 7.19281C11.8627 6.8628 11.6977 6.69779 11.5074 6.63597C11.34 6.58159 11.1597 6.58159 10.9924 6.63597C10.8021 6.69779 10.6371 6.8628 10.3071 7.19281L2.60935 14.8905C2.27934 15.2205 2.11433 15.3856 2.0525 15.5758C1.99812 15.7432 1.99812 15.9235 2.0525 16.0909C2.11433 16.2811 2.27934 16.4461 2.60935 16.7761L3.22373 17.3905C3.55375 17.7205 3.71875 17.8856 3.90903 17.9474C4.0764 18.0018 4.25669 18.0018 4.42405 17.9474C4.61433 17.8856 4.77934 17.7205 5.10935 17.3905Z" stroke="#1E1E1E" stroke-width="1.5" stroke-linecap="round" stroke-linejoin="round"/>
</svg>
