<svg width="20" height="20" viewBox="0 0 20 20" fill="none" xmlns="http://www.w3.org/2000/svg">
<path d="M14.1666 9.16669C14.1666 11.4679 12.3011 13.3334 9.99992 13.3334C7.69874 13.3334 5.83325 11.4679 5.83325 9.16669V5.83335C5.83325 3.53217 7.69874 1.66669 9.99992 1.66669" stroke="#1E1E1E" stroke-width="1.5" stroke-linecap="round" stroke-linejoin="round"/>
<path d="M16.6666 9.16669C16.6666 12.8486 13.6818 15.8334 9.99992 15.8334M9.99992 15.8334C6.31802 15.8334 3.33325 12.8486 3.33325 9.16669M9.99992 15.8334V18.3334" stroke="#1E1E1E" stroke-width="1.5" stroke-linecap="round" stroke-linejoin="round"/>
<path d="M11.944 3.87179C12.9496 3.74664 13.7467 2.94955 13.8718 1.94391C13.8908 1.79168 14.0133 1.66669 14.1667 1.66669C14.3202 1.66669 14.4427 1.79168 14.4617 1.94391C14.5868 2.94955 15.3839 3.74664 16.3895 3.87179C16.5417 3.89073 16.6667 4.01328 16.6667 4.16669C16.6667 4.3201 16.5417 4.44265 16.3895 4.46159C15.3839 4.58674 14.5868 5.38382 14.4617 6.38946C14.4427 6.5417 14.3202 6.66669 14.1667 6.66669C14.0133 6.66669 13.8908 6.5417 13.8718 6.38946C13.7467 5.38382 12.9496 4.58674 11.944 4.46159C11.7917 4.44265 11.6667 4.3201 11.6667 4.16669C11.6667 4.01328 11.7917 3.89073 11.944 3.87179Z" stroke="#1E1E1E" stroke-width="1.5"/>
</svg>
