<svg width="35" height="34" viewBox="0 0 35 34" fill="none" xmlns="http://www.w3.org/2000/svg">
<path d="M24.5834 15.5833C24.5834 19.4953 21.4121 22.6667 17.5001 22.6667C13.5881 22.6667 10.4167 19.4953 10.4167 15.5833V9.91666C10.4167 6.00465 13.5881 2.83333 17.5001 2.83333" stroke="#00A771" stroke-width="1.6" stroke-linecap="round" stroke-linejoin="round"/>
<path d="M10.4167 15.5833C10.4167 19.4953 13.5881 22.6667 17.5001 22.6667C21.4121 22.6667 24.5834 19.4953 24.5834 15.5833L24.5834 9.9167C24.5834 6.00468 21.4121 2.83333 17.5001 2.83333" stroke="#00A771" stroke-width="1.6" stroke-linecap="round" stroke-linejoin="round"/>
<path d="M28.8334 15.5833C28.8334 21.8426 23.7593 26.9167 17.5001 26.9167M17.5001 26.9167C11.2409 26.9167 6.16675 21.8426 6.16675 15.5833M17.5001 26.9167V31.1667" stroke="#00A771" stroke-width="1.6" stroke-linecap="round" stroke-linejoin="round"/>
</svg>
