<svg width="28" height="28" viewBox="0 0 28 28" fill="none" xmlns="http://www.w3.org/2000/svg">
<path d="M15.6346 2.33301H7.0013C6.38246 2.33301 5.78897 2.57884 5.35139 3.01643C4.9138 3.45401 4.66797 4.0475 4.66797 4.66634V23.333C4.66797 23.9518 4.9138 24.5453 5.35139 24.9829C5.78897 25.4205 6.38246 25.6663 7.0013 25.6663H21.0013C21.6201 25.6663 22.2136 25.4205 22.6512 24.9829C23.0888 24.5453 23.3346 23.9518 23.3346 23.333V14.6997" stroke="#434343" stroke-width="1.5" stroke-linecap="round" stroke-linejoin="round"/>
<path d="M2.33203 7H6.9987" stroke="#434343" stroke-width="1.5" stroke-linecap="round" stroke-linejoin="round"/>
<path d="M2.33203 11.667H6.9987" stroke="#434343" stroke-width="1.5" stroke-linecap="round" stroke-linejoin="round"/>
<path d="M2.33203 16.333H6.9987" stroke="#434343" stroke-width="1.5" stroke-linecap="round" stroke-linejoin="round"/>
<path d="M2.33203 21H6.9987" stroke="#434343" stroke-width="1.5" stroke-linecap="round" stroke-linejoin="round"/>
<path d="M24.9398 6.56351C25.4046 6.09877 25.6657 5.46843 25.6657 4.81118C25.6657 4.15393 25.4046 3.5236 24.9398 3.05885C24.4751 2.5941 23.8448 2.33301 23.1875 2.33301C22.5302 2.33301 21.8999 2.5941 21.4352 3.05885L15.5902 8.90618C15.3128 9.18341 15.1098 9.52607 14.9998 9.90251L14.0233 13.2508C13.9941 13.3512 13.9923 13.4577 14.0183 13.559C14.0442 13.6603 14.0969 13.7527 14.1709 13.8267C14.2448 13.9006 14.3373 13.9533 14.4386 13.9793C14.5399 14.0052 14.6463 14.0035 14.7467 13.9742L18.095 12.9977C18.4714 12.8878 18.8141 12.6847 19.0913 12.4073L24.9398 6.56351Z" stroke="#434343" stroke-width="1.5" stroke-linecap="round" stroke-linejoin="round"/>
</svg>
