<svg width="24" height="25" viewBox="0 0 24 25" fill="none" xmlns="http://www.w3.org/2000/svg">
<path d="M7.90007 16.9793L2.73538 15.0762C2.59298 15.0236 2.4701 14.9287 2.38331 14.8041C2.29652 14.6796 2.25 14.5314 2.25 14.3796C2.25 14.2278 2.29652 14.0797 2.38331 13.9551C2.4701 13.8306 2.59298 13.7357 2.73538 13.6831L7.90007 11.78L9.80321 6.61527C9.85577 6.47286 9.95069 6.34998 10.0753 6.2632C10.1998 6.17641 10.348 6.12988 10.4998 6.12988C10.6516 6.12988 10.7997 6.17641 10.9243 6.2632C11.0488 6.34998 11.1437 6.47286 11.1963 6.61527L13.0994 11.78L18.2641 13.6831C18.4066 13.7357 18.5294 13.8306 18.6162 13.9551C18.703 14.0797 18.7495 14.2278 18.7495 14.3796C18.7495 14.5314 18.703 14.6796 18.6162 14.8041C18.5294 14.9287 18.4066 15.0236 18.2641 15.0762L13.0994 16.9793L11.1963 22.144C11.1437 22.2864 11.0488 22.4093 10.9243 22.4961C10.7997 22.5829 10.6516 22.6294 10.4998 22.6294C10.348 22.6294 10.1998 22.5829 10.0753 22.4961C9.95069 22.4093 9.85577 22.2864 9.80321 22.144L7.90007 16.9793Z" stroke="white" stroke-width="1.25" stroke-linecap="round" stroke-linejoin="round"/>
<path d="M16.0508 2.08008V6.58008" stroke="white" stroke-width="1.25" stroke-linecap="round" stroke-linejoin="round"/>
<path d="M21 6.87988V10.4799" stroke="white" stroke-width="1.25" stroke-linecap="round" stroke-linejoin="round"/>
<path d="M13.8008 4.33008H18.3008" stroke="white" stroke-width="1.25" stroke-linecap="round" stroke-linejoin="round"/>
<path d="M19.1992 8.67969H22.7992" stroke="white" stroke-width="1.25" stroke-linecap="round" stroke-linejoin="round"/>
</svg>
