<svg width="20" height="22" viewBox="0 0 20 22" fill="none" xmlns="http://www.w3.org/2000/svg">
   <path
      d="M4.74976 17.3V14.675M4.74976 14.675V13.1C4.74976 12.6055 4.74976 12.3577 4.91146 12.2033C5.07316 12.05 5.33251 12.05 5.85226 12.05H6.58726C7.34851 12.05 7.96591 12.638 7.96591 13.3625C7.96591 14.087 7.34851 14.675 6.58726 14.675H4.74976ZM19.4498 12.05H18.0722C17.2059 12.05 16.7723 12.05 16.5035 12.3062C16.2347 12.5624 16.2347 12.9751 16.2347 13.8004V14.675M16.2347 14.675V17.3M16.2347 14.675H18.531M13.9373 14.675C13.9373 16.124 12.7035 17.3 11.181 17.3C10.8377 17.3 10.6665 17.3001 10.5374 17.2297C10.2318 17.0617 10.2623 16.7204 10.2623 16.4254V12.9247C10.2623 12.6296 10.2308 12.2884 10.5374 12.1204C10.6655 12.05 10.8377 12.05 11.181 12.05C12.7035 12.05 13.9373 13.226 13.9373 14.675Z"
      stroke="currentColor" stroke-width="0.818182" stroke-linecap="round" stroke-linejoin="round" />
   <path
      d="M13.1498 21.5001H8.66316C5.24016 21.5001 3.52656 21.5001 2.33796 20.6622C1.9997 20.425 1.69735 20.1403 1.44021 19.8169C0.549805 18.6976 0.549805 17.0869 0.549805 13.8634V11.1912C0.549805 8.08001 0.549805 6.52391 1.04225 5.28176C1.83396 3.28361 3.50766 1.70861 5.63076 0.963111C6.94956 0.500061 8.60121 0.500061 11.9087 0.500061C13.7966 0.500061 14.7416 0.500061 15.4955 0.764661C16.7083 1.19096 17.6648 2.09081 18.1174 3.23216C18.3998 3.94196 18.3998 4.83131 18.3998 6.60896V8.90006"
      stroke="currentColor" stroke-width="0.818182" stroke-linecap="round" stroke-linejoin="round" />
   <path
      d="M0.549805 11.0001C0.549805 10.0719 0.918517 9.18175 1.57483 8.52544C2.23114 7.86912 3.12129 7.50041 4.04946 7.50041C4.74876 7.50041 5.57301 7.62221 6.25236 7.44056C6.5492 7.36068 6.81983 7.20416 7.0371 6.98669C7.25438 6.76923 7.41067 6.49847 7.49031 6.20156C7.67196 5.52221 7.55016 4.69796 7.55016 3.99866C7.55043 3.07068 7.91927 2.1808 8.57555 1.52471C9.23183 0.868629 10.1218 0.500061 11.0498 0.500061"
      stroke="currentColor" stroke-width="0.818182" stroke-linecap="round" stroke-linejoin="round" />
</svg>