<svg width="17" height="19" viewBox="0 0 17 19" fill="none" xmlns="http://www.w3.org/2000/svg">
<path d="M15.4 7.51064V4.23809C15.4 2.44974 13.9673 1 12.2 1H8.2M11.5366 18H4.2C2.43269 18 1 16.5503 1 14.7619V7.51064M8.2 1H7.43404C3 1 1 3.42857 1 7.51064M8.2 1L7.94669 1.63354C7.32224 3.19533 7.39613 4.57779 7.34659 6.54077C7.34425 6.63355 7.3577 6.72853 7.33822 6.81922C7.2996 6.99895 7.13698 7.13523 6.94264 7.12547L6.37017 7.09671C4.6 7.12547 2.96441 7.13132 1.29163 7.45433L1 7.51064M5.8 14.7619V12.1126M5.8 12.1126V9.90476H6.99748C7.65884 9.90476 8.19497 10.399 8.19497 11.0087C8.19497 11.6183 7.65884 12.1126 6.99748 12.1126H5.8ZM17 9.90476H14.605V12.1126M14.605 14.7619V12.1126M14.605 12.1126H16.521M9.67421 9.90476V14.3203H10.6322C11.9549 14.3203 13.0272 13.3319 13.0272 12.1126C13.0272 10.8932 11.9549 9.90476 10.6322 9.90476H9.67421Z" stroke="#D74D4D"/>
<path d="M15.4 7.51064V4.23809C15.4 2.44974 13.9673 1 12.2 1H8.2M11.5366 18H4.2C2.43269 18 1 16.5503 1 14.7619V7.51064M8.2 1H7.43404C3 1 1 3.42857 1 7.51064M8.2 1L7.94669 1.63354C7.32224 3.19533 7.39613 4.57779 7.34659 6.54077C7.34425 6.63355 7.3577 6.72853 7.33822 6.81922C7.2996 6.99895 7.13698 7.13523 6.94264 7.12547L6.37017 7.09671C4.6 7.12547 2.96441 7.13132 1.29163 7.45433L1 7.51064" stroke="#1D1D1F"/>
</svg>
