<svg width="32" height="32" viewBox="0 0 32 32" fill="none" xmlns="http://www.w3.org/2000/svg">
   <path
      d="M1 8C1 4.13401 4.13401 1 8 1H24C27.866 1 31 4.13401 31 8V24C31 27.866 27.866 31 24 31H8C4.13401 31 1 27.866 1 24V8Z"
      fill="url(#paint0_linear_5882_2087) #026900" />
   <path
      d="M1 8C1 4.13401 4.13401 1 8 1H24C27.866 1 31 4.13401 31 8V24C31 27.866 27.866 31 24 31H8C4.13401 31 1 27.866 1 24V8Z"
      stroke="url(#paint1_linear_5882_2087) #13D92A" stroke-width="2" />
   <path
      d="M25.9999 12.4827C25.9994 12.3227 25.9321 12.1738 25.8283 12.07L22.3129 8.55457C22.2005 8.44227 22.0477 8.38281 21.8982 8.38281C21.7972 8.38281 12.6472 8.38281 12.4453 8.38281C12.1217 8.38281 11.8594 8.64516 11.8594 8.96875V9.79859C11.38 9.93477 10.9179 10.1275 10.478 10.3748L9.88832 9.78516C9.65953 9.55633 9.28852 9.55633 9.05969 9.78516L7.40234 11.4425C7.17367 11.6711 7.17355 12.0423 7.40234 12.2711L7.99195 12.8607C7.74473 13.3007 7.55199 13.7628 7.41578 14.2422H6.58594C6.26234 14.2422 6 14.5045 6 14.8281V17.1719C6 17.4955 6.26234 17.7578 6.58594 17.7578H7.41578C7.55199 18.2372 7.74469 18.6993 7.99199 19.1392L7.40234 19.7289C7.17363 19.9576 7.17355 20.3287 7.40234 20.5575L9.05965 22.2148C9.28848 22.4436 9.65945 22.4436 9.88828 22.2148L10.4779 21.6252C10.9179 21.8725 11.3799 22.0652 11.8593 22.2014V23.0312C11.8593 23.3548 12.1217 23.6172 12.4453 23.6172H25.414C25.7376 23.6172 26 23.3548 26 23.0312V12.4844C26 12.4838 25.9999 12.4832 25.9999 12.4827ZM22.4844 10.3833L23.9995 11.8984H22.4844V10.3833ZM14.2031 16.0003C14.2029 16.3232 13.9402 16.5859 13.6172 16.5859C13.2941 16.5859 13.0312 16.323 13.0312 16C13.0312 15.6769 13.2941 15.414 13.6172 15.414C13.9402 15.414 14.2029 15.6767 14.2031 15.9996V16.0003ZM14.2031 14.3429C14.0197 14.2779 13.8226 14.2421 13.6172 14.2421C12.6479 14.2421 11.8594 15.0307 11.8594 16C11.8594 16.9692 12.6479 17.7578 13.6172 17.7578C13.8226 17.7578 14.0197 17.722 14.2031 17.657V18.8707C14.0114 18.9096 13.8155 18.9297 13.6172 18.9297C12.0018 18.9297 10.6875 17.6154 10.6875 16C10.6875 14.3846 12.0018 13.0703 13.6172 13.0703C13.8155 13.0703 14.0114 13.0904 14.2031 13.1293V14.3429ZM12.5619 21.167C11.9066 21.034 11.2845 20.7747 10.713 20.3963C10.4807 20.2426 10.1722 20.2736 9.9752 20.4706L9.47398 20.9718L8.64531 20.1432L9.1466 19.6419C9.34359 19.4449 9.37465 19.1364 9.22082 18.9041C8.84246 18.3327 8.58316 17.7106 8.45012 17.0553C8.39469 16.7822 8.15457 16.5859 7.8759 16.5859H7.17188V15.4141H7.8759C8.15457 15.4141 8.39469 15.2178 8.45012 14.9447C8.58316 14.2893 8.84246 13.6672 9.22082 13.0958C9.37465 12.8635 9.34359 12.555 9.14656 12.358L8.64531 11.8568L9.47395 11.0281L9.97523 11.5294C10.1722 11.7264 10.4807 11.7574 10.713 11.6036C11.2845 11.2252 11.9066 10.9659 12.5618 10.8329C12.835 10.7775 13.0312 10.5374 13.0312 10.2587V9.55469H14.2031V11.9409C14.0099 11.9132 13.8144 11.8984 13.6171 11.8984C11.3555 11.8984 9.51559 13.7384 9.51559 16C9.51559 18.2616 11.3555 20.1016 13.6171 20.1016C13.8144 20.1016 14.0099 20.0868 14.2031 20.0591V22.4453H13.0312V21.7413C13.0312 21.4626 12.835 21.2225 12.5619 21.167ZM24.8281 22.4453H15.375V9.55469H21.3125V12.4844C21.3125 12.808 21.5748 13.0703 21.8984 13.0703H24.8281V22.4453Z"
      fill="white" />
   <path
      d="M17.1328 13.0703H19.5547C19.8783 13.0703 20.1406 12.808 20.1406 12.4844C20.1406 12.1608 19.8783 11.8984 19.5547 11.8984H17.1328C16.8092 11.8984 16.5469 12.1608 16.5469 12.4844C16.5469 12.808 16.8092 13.0703 17.1328 13.0703Z"
      fill="white" />
   <path
      d="M16.5469 14.8281C16.5469 15.1517 16.8092 15.4141 17.1328 15.4141H23.0703C23.3939 15.4141 23.6562 15.1517 23.6562 14.8281C23.6562 14.5045 23.3939 14.2422 23.0703 14.2422H17.1328C16.8092 14.2422 16.5469 14.5045 16.5469 14.8281Z"
      fill="white" />
   <path
      d="M23.0703 16.5859H17.1328C16.8092 16.5859 16.5469 16.8483 16.5469 17.1719C16.5469 17.4955 16.8092 17.7578 17.1328 17.7578H23.0703C23.3939 17.7578 23.6562 17.4955 23.6562 17.1719C23.6562 16.8483 23.3939 16.5859 23.0703 16.5859Z"
      fill="white" />
   <path
      d="M23.0703 18.9297H17.1328C16.8092 18.9297 16.5469 19.192 16.5469 19.5156C16.5469 19.8392 16.8092 20.1016 17.1328 20.1016H23.0703C23.3939 20.1016 23.6562 19.8392 23.6562 19.5156C23.6562 19.192 23.3939 18.9297 23.0703 18.9297Z"
      fill="white" />
   <defs>
      <linearGradient id="paint0_linear_5882_2087" x1="3" y1="16" x2="32" y2="16" gradientUnits="userSpaceOnUse">
         <stop stop-color="#097603" />
         <stop offset="0.46" stop-color="#5CC142" />
         <stop offset="1" stop-color="#026900" />
      </linearGradient>
      <linearGradient id="paint1_linear_5882_2087" x1="16" y1="0" x2="16" y2="32" gradientUnits="userSpaceOnUse">
         <stop stop-color="#13D92A" />
         <stop offset="1" stop-color="#73827F" />
      </linearGradient>
   </defs>
</svg>
