<svg width="12" height="12" viewBox="0 0 12 12" fill="none" xmlns="http://www.w3.org/2000/svg">
<path d="M2.93469 10.4778L0.634965 6.49445C0.54655 6.3413 0.5 6.1676 0.5 5.99075C0.5 5.8139 0.54655 5.6402 0.634965 5.48705L2.93469 1.50375C3.02312 1.35058 3.15031 1.22339 3.30349 1.13496C3.45666 1.04653 3.63041 0.99999 3.80727 1H8.4067C8.58355 1.00001 8.7573 1.04656 8.91045 1.13498C9.0636 1.22341 9.1908 1.35059 9.2792 1.50375L11.5789 5.48705C11.6673 5.6402 11.714 5.81395 11.714 5.9908C11.714 6.16765 11.6673 6.3414 11.5789 6.49455L9.2792 10.4778C9.1908 10.631 9.0636 10.7582 8.91045 10.8465C8.7573 10.9349 8.58355 10.9815 8.4067 10.9815H3.80727C3.6304 10.9815 3.45666 10.935 3.30348 10.8465C3.15031 10.7581 3.02311 10.6311 2.93469 10.4778Z" fill="#18EBBD"/>
<path opacity="0.07" d="M10.9455 7.9602L7.56347 4.57801L6.10697 4.18823L4.79869 4.67446L4.29346 5.9908L4.6997 7.4564L8.28622 11.0429L9.04727 11.0091L10.9455 7.9602Z" fill="#1E1E1E"/>
<path d="M6.10703 3.95862C4.98477 3.95862 4.07495 4.86843 4.07495 5.9908C4.07495 7.11305 4.98477 8.02285 6.10703 8.02285C7.22928 8.02285 8.13903 7.11305 8.13903 5.9908C8.13903 4.86843 7.22923 3.95862 6.10703 3.95862ZM6.10703 7.5326C5.25548 7.5326 4.56512 6.84225 4.56512 5.9907C4.56512 5.13915 5.25548 4.44887 6.10703 4.44887C6.95858 4.44887 7.64893 5.13925 7.64893 5.9908C7.64893 6.84235 6.95858 7.5326 6.10703 7.5326Z" fill="white"/>
<path d="M5.14233 5.91232V6.54397C5.23578 6.70442 5.36763 6.83917 5.52603 6.93602V5.91232H5.14233ZM5.90318 5.37982V7.08042C5.96843 7.09242 6.03523 7.09967 6.10383 7.09967C6.16638 7.09967 6.22733 7.09312 6.28718 7.08312V5.37982H5.90318ZM6.69963 6.17482V6.92492C6.86058 6.82257 6.99273 6.68082 7.08353 6.51317V6.17487L6.69963 6.17482ZM7.56913 7.24247L7.35863 7.45317C7.34078 7.47107 7.33078 7.49527 7.33078 7.52052C7.33078 7.54577 7.34078 7.56997 7.35863 7.58782L8.15718 8.38612C8.17503 8.40397 8.19928 8.41397 8.22453 8.41397C8.24973 8.41397 8.27398 8.40397 8.29183 8.38612L8.50238 8.17567C8.52008 8.15777 8.53003 8.13362 8.53003 8.10842C8.53003 8.08322 8.52008 8.05902 8.50238 8.04112L7.70373 7.24247C7.68583 7.22472 7.66163 7.21477 7.63643 7.21477C7.61123 7.21477 7.58703 7.22472 7.56913 7.24247Z" fill="white"/>
</svg>
