<svg width="21" height="21" viewBox="0 0 21 21" fill="none" xmlns="http://www.w3.org/2000/svg">
<g clip-path="url(#clip0_12351_1844)">
<path d="M13.8833 10.7917C13.8833 12.4992 12.4991 13.8834 10.7917 13.8834C9.08419 13.8834 7.7 12.4992 7.7 10.7917C7.7 9.08422 9.08419 7.70003 10.7917 7.70003C12.4991 7.70003 13.8833 9.08422 13.8833 10.7917Z" stroke="#1D1D1F" stroke-width="1.4" stroke-linecap="square"/>
<path d="M3.93828 4.25883L3.26984 4.46666L3.93828 4.25883C3.73141 3.59349 4.01174 2.8755 4.60654 2.52977L6.56926 1.38892C7.15857 1.04637 7.9079 1.17977 8.34522 1.70881C9.4658 3.06436 11.5357 3.06436 12.6563 1.70881C13.0936 1.17977 13.843 1.04637 14.4323 1.38892L16.3997 2.53251C16.9988 2.88073 17.2864 3.59973 17.0892 4.27317L17.0609 4.36981C16.5994 5.94567 17.5712 7.58969 19.1797 7.92701C19.8291 8.06319 20.3 8.6414 20.3 9.31773V11.6823C20.3 12.3587 19.8291 12.9369 19.1797 13.0731C17.5712 13.4104 16.5994 15.0544 17.0609 16.6302L17.0892 16.7269C17.2864 17.4003 16.9988 18.1193 16.3997 18.4675L14.4323 19.6111C13.843 19.9537 13.0936 19.8203 12.6563 19.2913C11.5357 17.9357 9.46579 17.9357 8.34522 19.2913C7.9079 19.8203 7.15857 19.9537 6.56926 19.6111L4.60654 18.4703C4.01174 18.1246 3.73141 17.4066 3.93828 16.7412L3.95554 16.6857L3.2871 16.4779L3.95554 16.6857C4.45147 15.0907 3.47065 13.4063 1.83298 13.0692C1.17676 12.9341 0.7 12.3509 0.7 11.668V9.33205C0.7 8.64918 1.17676 8.06596 1.83298 7.93089C3.47065 7.59379 4.45147 5.90941 3.95554 4.31435L3.93828 4.25883Z" stroke="#1D1D1F" stroke-width="1.4" stroke-linecap="square"/>
</g>
<defs>
<clipPath id="clip0_12351_1844">
<rect width="21" height="21" fill="white"/>
</clipPath>
</defs>
</svg>
