<svg width="20" height="20" viewBox="0 0 20 20" fill="none" xmlns="http://www.w3.org/2000/svg">
<g clip-path="url(#clip0_1_236)">
<mask id="mask0_1_236" style="mask-type:luminance" maskUnits="userSpaceOnUse" x="0" y="0" width="20" height="20">
<path d="M20 0H0V20H20V0Z" fill="white"/>
</mask>
<g mask="url(#mask0_1_236)">
<path d="M3.125 0.625C3.125 0.279822 3.40482 0 3.75 0C4.09518 0 4.375 0.279822 4.375 0.625C4.375 2.00571 5.49429 3.125 6.875 3.125C7.22018 3.125 7.5 3.40482 7.5 3.75C7.5 4.09518 7.22018 4.375 6.875 4.375C5.49429 4.375 4.375 5.49429 4.375 6.875C4.375 7.22018 4.09518 7.5 3.75 7.5C3.40482 7.5 3.125 7.22018 3.125 6.875C3.125 5.49429 2.00571 4.375 0.625 4.375C0.279822 4.375 0 4.09518 0 3.75C0 3.40482 0.279822 3.125 0.625 3.125C2.00571 3.125 3.125 2.00571 3.125 0.625Z" fill="#18EBBD"/>
<path d="M18.125 5.625C18.125 5.97018 17.8452 6.25 17.5 6.25C17.1548 6.25 16.875 5.97018 16.875 5.625C16.875 4.93465 16.3154 4.375 15.625 4.375C15.2798 4.375 15 4.09518 15 3.75C15 3.40482 15.2798 3.125 15.625 3.125C16.3154 3.125 16.875 2.56535 16.875 1.875C16.875 1.52982 17.1548 1.25 17.5 1.25C17.8452 1.25 18.125 1.52982 18.125 1.875C18.125 2.56535 18.6846 3.125 19.375 3.125C19.7202 3.125 20 3.40482 20 3.75C20 4.09518 19.7202 4.375 19.375 4.375C18.6846 4.375 18.125 4.93465 18.125 5.625Z" fill="#18EBBD"/>
<path d="M10.5088 6.16174L10.5628 5.6219C10.5981 5.26885 10.8952 5 11.25 5C11.6048 5 11.9019 5.26885 11.9372 5.6219L11.9912 6.16174C12.2872 9.12168 14.6284 11.4628 17.5882 11.7588L18.1281 11.8128C18.4812 11.8481 18.75 12.1452 18.75 12.5C18.75 12.8548 18.4811 13.1519 18.1281 13.1872L17.5882 13.2411C14.6284 13.5371 12.2872 15.8784 11.9912 18.8382L11.9372 19.3781C11.9019 19.7311 11.6048 20 11.25 20C10.8952 20 10.5981 19.7311 10.5628 19.3781L10.5088 18.8382C10.2128 15.8784 7.87168 13.5371 4.91174 13.2411L4.37191 13.1872C4.01886 13.1519 3.75 12.8548 3.75 12.5C3.75 12.1452 4.01885 11.8481 4.37188 11.8128L4.91174 11.7588C7.87168 11.4628 10.2128 9.12168 10.5088 6.16174Z" fill="#18EBBD"/>
</g>
</g>
<defs>
<clipPath id="clip0_1_236">
<rect width="20" height="20" fill="white"/>
</clipPath>
</defs>
</svg>
