<svg width="16" height="16" viewBox="0 0 16 16" fill="none" xmlns="http://www.w3.org/2000/svg">
<path d="M11.8706 9.89147C11.9482 9.9376 12.0439 9.99167 12.1524 10.0529C12.6276 10.3209 13.3459 10.7262 13.8381 11.2079C14.1459 11.5091 14.4383 11.9061 14.4915 12.3925C14.548 12.9097 14.3223 13.3951 13.8697 13.8264C13.0887 14.5704 12.1515 15.1667 10.9393 15.1667H5.06045C3.84825 15.1667 2.91105 14.5704 2.13009 13.8264C1.67741 13.3951 1.45177 12.9097 1.50831 12.3925C1.56147 11.9061 1.85391 11.5091 2.16169 11.2079C2.6538 10.7262 3.37214 10.3209 3.84735 10.0529C3.95579 9.99167 4.05158 9.9376 4.12912 9.89147C6.49848 8.4806 9.50127 8.4806 11.8706 9.89147Z" fill="white"/>
<path d="M4.49976 4.33333C4.49976 2.40033 6.06676 0.833334 7.99975 0.833334C9.93275 0.833334 11.4997 2.40033 11.4997 4.33333C11.4997 6.26633 9.93275 7.83333 7.99975 7.83333C6.06676 7.83333 4.49976 6.26633 4.49976 4.33333Z" fill="white"/>
</svg>
