<?xml version="1.0" encoding="UTF-8"?>
<svg id="Layer_1" xmlns="http://www.w3.org/2000/svg" viewBox="0 0 500 500">
   <path fill="#279f4f"
      d="m383.49,148.46c-2.2,5.07-4.42,10.31-6.74,15.5-5.07,11.27-10.21,22.52-15.29,33.8-9.27,20.56-18.52,41.12-27.78,61.69-10.96,24.35-21.91,48.72-32.86,73.07-5.46,12.14-10.81,24.31-16.39,36.4-10.24,22.14-41.06,29.08-60.25,13.98-7.76-6.09-11.73-14.39-15.58-22.94-8.46-18.75-16.87-37.53-25.33-56.29-9.15-20.27-18.34-40.52-27.49-60.79-7.52-16.68-15-33.37-22.5-50.05-4.39-9.77-11.44-25.55-16.77-37.42,20.53-21.11,82.9-45.95,117.1-46.38-8.82,35.64-17.62,71.16-26.68,107.75,20.35-5.58,39.98-10.97,60.28-16.54-10.28,48.18-20.46,95.89-30.66,143.61l.13.04c30.18-66.15,60.36-132.29,90.54-198.42-19.56,5.66-39.09,11.29-59.51,17.19,6.18-17.73,12.08-34.66,17.93-51.47,16.95.19,85.82,24.29,97.86,37.25Z" />
</svg>