<svg width="16" height="16" viewBox="0 0 16 16" fill="none" xmlns="http://www.w3.org/2000/svg">
<g clip-path="url(#clip0_1_271)">
<path d="M7.99992 14.6666C11.6818 14.6666 14.6666 11.6819 14.6666 7.99998C14.6666 4.31808 11.6818 1.33331 7.99992 1.33331C4.31802 1.33331 1.33325 4.31808 1.33325 7.99998C1.33325 11.6819 4.31802 14.6666 7.99992 14.6666Z" stroke="#1E1E1E" stroke-width="1.5" stroke-linecap="square" stroke-linejoin="round"/>
<path d="M5.33325 7.99998C5.33325 12 7.99992 14.6666 7.99992 14.6666C7.99992 14.6666 10.6666 12 10.6666 7.99998C10.6666 3.99998 7.99992 1.33331 7.99992 1.33331C7.99992 1.33331 5.33325 3.99998 5.33325 7.99998Z" stroke="#1E1E1E" stroke-width="1.5" stroke-linecap="square" stroke-linejoin="round"/>
<path d="M14 10H2" stroke="#1E1E1E" stroke-width="1.5" stroke-linecap="square" stroke-linejoin="round"/>
<path d="M14 6H2" stroke="#1E1E1E" stroke-width="1.5" stroke-linecap="square" stroke-linejoin="round"/>
</g>
<defs>
<clipPath id="clip0_1_271">
<rect width="16" height="16" fill="white"/>
</clipPath>
</defs>
</svg>
