<svg width="18" height="18" viewBox="0 0 18 18" fill="none" xmlns="http://www.w3.org/2000/svg">
<g clip-path="url(#clip0_384_5345)">
<path d="M13.375 8.375V13.1914C13.3749 13.3569 13.3092 13.5157 13.1922 13.6328L10.5086 16.3164C10.4265 16.3984 10.3232 16.4558 10.2102 16.4823C10.0973 16.5089 9.97925 16.5036 9.86925 16.4668C9.7592 16.4301 9.66155 16.3635 9.58725 16.2744C9.51295 16.1853 9.46485 16.0773 9.44845 15.9625L9 12.75L13.375 8.375Z" fill="#52B231"/>
<path d="M9.624 4.625H4.80755C4.64205 4.6251 4.4833 4.6908 4.36615 4.8078L1.68257 7.4914C1.60064 7.5735 1.54317 7.6768 1.51661 7.78975C1.49004 7.90265 1.49543 8.02075 1.53216 8.13075C1.56889 8.2408 1.63552 8.33845 1.72458 8.41275C1.81365 8.48705 1.92165 8.53515 2.03648 8.55155L5.249 9L9.624 4.625Z" fill="#52B231"/>
<path d="M6.3875 13.6733C6.08515 14.3365 5.0664 15.8748 2.125 15.8748C2.125 12.9334 3.66328 11.9147 4.32655 11.6123L6.3875 13.6733Z" fill="#52B231"/>
<path d="M13.9305 7.81951C15.8055 5.94451 15.9226 3.71403 15.864 2.71949C15.8543 2.56792 15.7897 2.42507 15.6823 2.31767C15.5749 2.21027 15.4321 2.14565 15.2805 2.1359C14.286 2.07731 12.0571 2.19293 10.1805 4.06951L5.25 8.99996L9 12.75L13.9305 7.81951Z" stroke="#1D1D1F" stroke-width="1.25" stroke-linecap="round" stroke-linejoin="round"/>
<path d="M9.624 4.625H4.80755C4.64205 4.6251 4.4833 4.6908 4.36615 4.8078L1.68257 7.4914C1.60064 7.5735 1.54317 7.6768 1.51661 7.78975C1.49004 7.90265 1.49543 8.02075 1.53216 8.13075C1.56889 8.2408 1.63552 8.33845 1.72458 8.41275C1.81365 8.48705 1.92165 8.53515 2.03648 8.55155L5.249 9" stroke="#1D1D1F" stroke-width="1.25" stroke-linecap="round" stroke-linejoin="round"/>
<path d="M13.375 8.375V13.1914C13.3749 13.3569 13.3092 13.5157 13.1922 13.6328L10.5086 16.3164C10.4265 16.3984 10.3232 16.4558 10.2102 16.4823C10.0973 16.5089 9.97925 16.5036 9.86925 16.4668C9.7592 16.4301 9.66155 16.3635 9.58725 16.2744C9.51295 16.1853 9.46485 16.0773 9.44845 15.9625L9 12.75" stroke="#1D1D1F" stroke-width="1.25" stroke-linecap="round" stroke-linejoin="round"/>
<path d="M6.3875 13.6733C6.08515 14.3365 5.0664 15.8748 2.125 15.8748C2.125 12.9334 3.66328 11.9147 4.32655 11.6123" stroke="#1D1D1F" stroke-width="1.25" stroke-linecap="round" stroke-linejoin="round"/>
</g>
<defs>
<clipPath id="clip0_384_5345">
<rect width="18" height="18" fill="white"/>
</clipPath>
</defs>
</svg>
